<svg id="visual" viewBox="0 0 900 600" width="900" height="600" xmlns="http://www.w3.org/2000/svg" xmlns:xlink="http://www.w3.org/1999/xlink" version="1.1"><path d="M0 102L15 111.5C30 121 60 140 90 147.7C120 155.3 150 151.7 180 150.7C210 149.7 240 151.3 270 146.7C300 142 330 131 360 135.7C390 140.3 420 160.7 450 153.5C480 146.3 510 111.7 540 99.2C570 86.7 600 96.3 630 107.5C660 118.7 690 131.3 720 138.8C750 146.3 780 148.7 810 156.7C840 164.7 870 178.3 885 185.2L900 192L900 0L885 0C870 0 840 0 810 0C780 0 750 0 720 0C690 0 660 0 630 0C600 0 570 0 540 0C510 0 480 0 450 0C420 0 390 0 360 0C330 0 300 0 270 0C240 0 210 0 180 0C150 0 120 0 90 0C60 0 30 0 15 0L0 0Z" fill="#fff37e"></path><path d="M0 109L15 102C30 95 60 81 90 87.7C120 94.3 150 121.7 180 134.3C210 147 240 145 270 132.2C300 119.3 330 95.7 360 93.7C390 91.7 420 111.3 450 130C480 148.7 510 166.3 540 170C570 173.7 600 163.3 630 157.8C660 152.3 690 151.7 720 150.2C750 148.7 780 146.3 810 144.8C840 143.3 870 142.7 885 142.3L900 142L900 0L885 0C870 0 840 0 810 0C780 0 750 0 720 0C690 0 660 0 630 0C600 0 570 0 540 0C510 0 480 0 450 0C420 0 390 0 360 0C330 0 300 0 270 0C240 0 210 0 180 0C150 0 120 0 90 0C60 0 30 0 15 0L0 0Z" fill="#afcc6e"></path><path d="M0 116L15 108C30 100 60 84 90 74C120 64 150 60 180 70.3C210 80.7 240 105.3 270 112C300 118.7 330 107.3 360 105.2C390 103 420 110 450 105.3C480 100.7 510 84.3 540 76.7C570 69 600 70 630 82.2C660 94.3 690 117.7 720 128.8C750 140 780 139 810 127.2C840 115.3 870 92.7 885 81.3L900 70L900 0L885 0C870 0 840 0 810 0C780 0 750 0 720 0C690 0 660 0 630 0C600 0 570 0 540 0C510 0 480 0 450 0C420 0 390 0 360 0C330 0 300 0 270 0C240 0 210 0 180 0C150 0 120 0 90 0C60 0 30 0 15 0L0 0Z" fill="#6ba262"></path><path d="M0 61L15 68.7C30 76.3 60 91.7 90 88.8C120 86 150 65 180 60.2C210 55.3 240 66.7 270 74.5C300 82.3 330 86.7 360 82.3C390 78 420 65 450 61.5C480 58 510 64 540 73.2C570 82.3 600 94.7 630 100.5C660 106.3 690 105.7 720 101.3C750 97 780 89 810 86C840 83 870 85 885 86L900 87L900 0L885 0C870 0 840 0 810 0C780 0 750 0 720 0C690 0 660 0 630 0C600 0 570 0 540 0C510 0 480 0 450 0C420 0 390 0 360 0C330 0 300 0 270 0C240 0 210 0 180 0C150 0 120 0 90 0C60 0 30 0 15 0L0 0Z" fill="#337754"></path><path d="M0 40L15 37.7C30 35.3 60 30.7 90 29.3C120 28 150 30 180 36.8C210 43.7 240 55.3 270 60C300 64.7 330 62.3 360 58.2C390 54 420 48 450 42.3C480 36.7 510 31.3 540 34.3C570 37.3 600 48.7 630 49.8C660 51 690 42 720 37.5C750 33 780 33 810 33.8C840 34.7 870 36.3 885 37.2L900 38L900 0L885 0C870 0 840 0 810 0C780 0 750 0 720 0C690 0 660 0 630 0C600 0 570 0 540 0C510 0 480 0 450 0C420 0 390 0 360 0C330 0 300 0 270 0C240 0 210 0 180 0C150 0 120 0 90 0C60 0 30 0 15 0L0 0Z" fill="#004d40"></path></svg>