<svg id="visual" viewBox="0 0 900 600" width="900" height="600" xmlns="http://www.w3.org/2000/svg" xmlns:xlink="http://www.w3.org/1999/xlink" version="1.1"><path d="M0 174L21.5 169.7C43 165.3 86 156.7 128.8 154.8C171.7 153 214.3 158 257.2 165.7C300 173.3 343 183.7 385.8 191.8C428.7 200 471.3 206 514.2 198C557 190 600 168 642.8 169.2C685.7 170.3 728.3 194.7 771.2 198.3C814 202 857 185 878.5 176.5L900 168L900 0L878.5 0C857 0 814 0 771.2 0C728.3 0 685.7 0 642.8 0C600 0 557 0 514.2 0C471.3 0 428.7 0 385.8 0C343 0 300 0 257.2 0C214.3 0 171.7 0 128.8 0C86 0 43 0 21.5 0L0 0Z" fill="#004d50"></path><path d="M0 196L21.5 185.7C43 175.3 86 154.7 128.8 155.3C171.7 156 214.3 178 257.2 176.7C300 175.3 343 150.7 385.8 148.2C428.7 145.7 471.3 165.3 514.2 172.2C557 179 600 173 642.8 165C685.7 157 728.3 147 771.2 149.7C814 152.3 857 167.7 878.5 175.3L900 183L900 0L878.5 0C857 0 814 0 771.2 0C728.3 0 685.7 0 642.8 0C600 0 557 0 514.2 0C471.3 0 428.7 0 385.8 0C343 0 300 0 257.2 0C214.3 0 171.7 0 128.8 0C86 0 43 0 21.5 0L0 0Z" fill="#157064"></path><path d="M0 126L21.5 133C43 140 86 154 128.8 147.2C171.7 140.3 214.3 112.7 257.2 102.3C300 92 343 99 385.8 110.3C428.7 121.7 471.3 137.3 514.2 143C557 148.7 600 144.3 642.8 142.8C685.7 141.3 728.3 142.7 771.2 136.2C814 129.7 857 115.3 878.5 108.2L900 101L900 0L878.5 0C857 0 814 0 771.2 0C728.3 0 685.7 0 642.8 0C600 0 557 0 514.2 0C471.3 0 428.7 0 385.8 0C343 0 300 0 257.2 0C214.3 0 171.7 0 128.8 0C86 0 43 0 21.5 0L0 0Z" fill="#419370"></path><path d="M0 107L21.5 105.3C43 103.7 86 100.3 128.8 100.7C171.7 101 214.3 105 257.2 99.2C300 93.3 343 77.7 385.8 74.8C428.7 72 471.3 82 514.2 85.2C557 88.3 600 84.7 642.8 88C685.7 91.3 728.3 101.7 771.2 107.2C814 112.7 857 113.3 878.5 113.7L900 114L900 0L878.5 0C857 0 814 0 771.2 0C728.3 0 685.7 0 642.8 0C600 0 557 0 514.2 0C471.3 0 428.7 0 385.8 0C343 0 300 0 257.2 0C214.3 0 171.7 0 128.8 0C86 0 43 0 21.5 0L0 0Z" fill="#76b675"></path><path d="M0 88L21.5 87C43 86 86 84 128.8 83.7C171.7 83.3 214.3 84.7 257.2 87.2C300 89.7 343 93.3 385.8 95C428.7 96.7 471.3 96.3 514.2 89C557 81.7 600 67.3 642.8 60.8C685.7 54.3 728.3 55.7 771.2 53.8C814 52 857 47 878.5 44.5L900 42L900 0L878.5 0C857 0 814 0 771.2 0C728.3 0 685.7 0 642.8 0C600 0 557 0 514.2 0C471.3 0 428.7 0 385.8 0C343 0 300 0 257.2 0C214.3 0 171.7 0 128.8 0C86 0 43 0 21.5 0L0 0Z" fill="#b6d677"></path><path d="M0 63L21.5 62.5C43 62 86 61 128.8 54.5C171.7 48 214.3 36 257.2 30.8C300 25.7 343 27.3 385.8 27.2C428.7 27 471.3 25 514.2 29.5C557 34 600 45 642.8 48.7C685.7 52.3 728.3 48.7 771.2 47.3C814 46 857 47 878.5 47.5L900 48L900 0L878.5 0C857 0 814 0 771.2 0C728.3 0 685.7 0 642.8 0C600 0 557 0 514.2 0C471.3 0 428.7 0 385.8 0C343 0 300 0 257.2 0C214.3 0 171.7 0 128.8 0C86 0 43 0 21.5 0L0 0Z" fill="#fff37e"></path></svg>