<svg className={classes.blob} id="visual" viewBox="0 0 900 600" width="900" height="600" xmlns="http://www.w3.org/2000/svg" xmlns:xlink="http://www.w3.org/1999/xlink" version="1.1"><g transform="translate(422.46561544275903 279.81737969464376)"><path d="M152.6 -204.1C190 -182.9 207.2 -127.9 199.2 -81.5C191.2 -35.1 157.9 2.7 134.9 34.7C111.9 66.6 99.1 92.8 78.4 136C57.6 179.3 28.8 239.6 -9.8 253.1C-48.4 266.6 -96.8 233.2 -114.6 189C-132.5 144.8 -119.7 89.8 -121.1 48.2C-122.4 6.6 -137.7 -21.6 -143.6 -60C-149.5 -98.4 -145.9 -147.1 -120.3 -172.1C-94.8 -197.2 -47.4 -198.6 5.1 -205.6C57.6 -212.6 115.2 -225.2 152.6 -204.1" fill="#BB004B"></path></g></svg>