<svg id="visual" viewBox="0 0 900 600" width="900" height="600" xmlns="http://www.w3.org/2000/svg" xmlns:xlink="http://www.w3.org/1999/xlink" version="1.1"><path d="M0 424L21.5 428.3C43 432.7 86 441.3 128.8 443.2C171.7 445 214.3 440 257.2 432.3C300 424.7 343 414.3 385.8 406.2C428.7 398 471.3 392 514.2 400C557 408 600 430 642.8 428.8C685.7 427.7 728.3 403.3 771.2 399.7C814 396 857 413 878.5 421.5L900 430L900 601L878.5 601C857 601 814 601 771.2 601C728.3 601 685.7 601 642.8 601C600 601 557 601 514.2 601C471.3 601 428.7 601 385.8 601C343 601 300 601 257.2 601C214.3 601 171.7 601 128.8 601C86 601 43 601 21.5 601L0 601Z" fill="#004d40"></path><path d="M0 402L21.5 412.3C43 422.7 86 443.3 128.8 442.7C171.7 442 214.3 420 257.2 421.3C300 422.7 343 447.3 385.8 449.8C428.7 452.3 471.3 432.7 514.2 425.8C557 419 600 425 642.8 433C685.7 441 728.3 451 771.2 448.3C814 445.7 857 430.3 878.5 422.7L900 415L900 601L878.5 601C857 601 814 601 771.2 601C728.3 601 685.7 601 642.8 601C600 601 557 601 514.2 601C471.3 601 428.7 601 385.8 601C343 601 300 601 257.2 601C214.3 601 171.7 601 128.8 601C86 601 43 601 21.5 601L0 601Z" fill="#00453e"></path><path d="M0 472L21.5 465C43 458 86 444 128.8 450.8C171.7 457.7 214.3 485.3 257.2 495.7C300 506 343 499 385.8 487.7C428.7 476.3 471.3 460.7 514.2 455C557 449.3 600 453.7 642.8 455.2C685.7 456.7 728.3 455.3 771.2 461.8C814 468.3 857 482.7 878.5 489.8L900 497L900 601L878.5 601C857 601 814 601 771.2 601C728.3 601 685.7 601 642.8 601C600 601 557 601 514.2 601C471.3 601 428.7 601 385.8 601C343 601 300 601 257.2 601C214.3 601 171.7 601 128.8 601C86 601 43 601 21.5 601L0 601Z" fill="#003d3a"></path><path d="M0 491L21.5 492.7C43 494.3 86 497.7 128.8 497.3C171.7 497 214.3 493 257.2 498.8C300 504.7 343 520.3 385.8 523.2C428.7 526 471.3 516 514.2 512.8C557 509.7 600 513.3 642.8 510C685.7 506.7 728.3 496.3 771.2 490.8C814 485.3 857 484.7 878.5 484.3L900 484L900 601L878.5 601C857 601 814 601 771.2 601C728.3 601 685.7 601 642.8 601C600 601 557 601 514.2 601C471.3 601 428.7 601 385.8 601C343 601 300 601 257.2 601C214.3 601 171.7 601 128.8 601C86 601 43 601 21.5 601L0 601Z" fill="#003536"></path><path d="M0 510L21.5 511C43 512 86 514 128.8 514.3C171.7 514.7 214.3 513.3 257.2 510.8C300 508.3 343 504.7 385.8 503C428.7 501.3 471.3 501.7 514.2 509C557 516.3 600 530.7 642.8 537.2C685.7 543.7 728.3 542.3 771.2 544.2C814 546 857 551 878.5 553.5L900 556L900 601L878.5 601C857 601 814 601 771.2 601C728.3 601 685.7 601 642.8 601C600 601 557 601 514.2 601C471.3 601 428.7 601 385.8 601C343 601 300 601 257.2 601C214.3 601 171.7 601 128.8 601C86 601 43 601 21.5 601L0 601Z" fill="#022d30"></path><path d="M0 535L21.5 535.5C43 536 86 537 128.8 543.5C171.7 550 214.3 562 257.2 567.2C300 572.3 343 570.7 385.8 570.8C428.7 571 471.3 573 514.2 568.5C557 564 600 553 642.8 549.3C685.7 545.7 728.3 549.3 771.2 550.7C814 552 857 551 878.5 550.5L900 550L900 601L878.5 601C857 601 814 601 771.2 601C728.3 601 685.7 601 642.8 601C600 601 557 601 514.2 601C471.3 601 428.7 601 385.8 601C343 601 300 601 257.2 601C214.3 601 171.7 601 128.8 601C86 601 43 601 21.5 601L0 601Z" fill="#05252a"></path></svg>