<svg id="visual" viewBox="0 0 900 600" width="900" height="600" xmlns="http://www.w3.org/2000/svg" xmlns:xlink="http://www.w3.org/1999/xlink" version="1.1"><path d="M581 600L568.5 580C556 560 531 520 568.3 480C605.7 440 705.3 400 757.8 360C810.3 320 815.7 280 814.8 240C814 200 807 160 798 120C789 80 778 40 772.5 20L767 0L900 0L900 20C900 40 900 80 900 120C900 160 900 200 900 240C900 280 900 320 900 360C900 400 900 440 900 480C900 520 900 560 900 580L900 600Z" fill="#00695c"></path><path d="M775 600L755.2 580C735.3 560 695.7 520 710 480C724.3 440 792.7 400 797.5 360C802.3 320 743.7 280 714 240C684.3 200 683.7 160 717.3 120C751 80 819 40 853 20L887 0L900 0L900 20C900 40 900 80 900 120C900 160 900 200 900 240C900 280 900 320 900 360C900 400 900 440 900 480C900 520 900 560 900 580L900 600Z" fill="#00897b"></path></svg>