<svg id="visual" viewBox="0 0 900 600" width="900" height="600" xmlns="http://www.w3.org/2000/svg" xmlns:xlink="http://www.w3.org/1999/xlink" version="1.1"><path d="M0 204L25 201C50 198 100 192 150 208.5C200 225 250 264 300 259.7C350 255.3 400 207.7 450 182.8C500 158 550 156 600 181.2C650 206.3 700 258.7 750 260.2C800 261.7 850 212.3 875 187.7L900 163L900 0L875 0C850 0 800 0 750 0C700 0 650 0 600 0C550 0 500 0 450 0C400 0 350 0 300 0C250 0 200 0 150 0C100 0 50 0 25 0L0 0Z" fill="#00695c"></path><path d="M0 100L25 128.8C50 157.7 100 215.3 150 229C200 242.7 250 212.3 300 192.2C350 172 400 162 450 149.2C500 136.3 550 120.7 600 134.5C650 148.3 700 191.7 750 202.2C800 212.7 850 190.3 875 179.2L900 168L900 0L875 0C850 0 800 0 750 0C700 0 650 0 600 0C550 0 500 0 450 0C400 0 350 0 300 0C250 0 200 0 150 0C100 0 50 0 25 0L0 0Z" fill="#017f71"></path><path d="M0 56L25 63.8C50 71.7 100 87.3 150 106C200 124.7 250 146.3 300 153.8C350 161.3 400 154.7 450 144.2C500 133.7 550 119.3 600 110.7C650 102 700 99 750 98.3C800 97.7 850 99.3 875 100.2L900 101L900 0L875 0C850 0 800 0 750 0C700 0 650 0 600 0C550 0 500 0 450 0C400 0 350 0 300 0C250 0 200 0 150 0C100 0 50 0 25 0L0 0Z" fill="#009688"></path></svg>